Coordinates
version=1
nRows=6
nColumns=63
inDegrees=yes

Units are S.I. units (second, meters, Newtons, ...)
If the header above contains a line with 'inDegrees', this indicates whether rotational values are in degrees (yes) or radians (no).

endheader
time	pelvis_tilt	pelvis_list	pelvis_rotation	pelvis_tx	pelvis_ty	pelvis_tz	hip_flexion_r	hip_adduction_r	hip_rotation_r	knee_angle_r	knee_angle_r_beta	ankle_angle_r	subtalar_angle_r	mtp_angle_r	hip_flexion_l	hip_adduction_l	hip_rotation_l	knee_angle_l	knee_angle_l_beta	ankle_angle_l	subtalar_angle_l	mtp_angle_l	L5_S1_Flex_Ext	L5_S1_Lat_Bending	L5_S1_axial_rotation	L4_L5_Flex_Ext	L4_L5_Lat_Bending	L4_L5_axial_rotation	L3_L4_Flex_Ext	L3_L4_Lat_Bending	L3_L4_axial_rotation	L2_L3_Flex_Ext	L2_L3_Lat_Bending	L2_L3_axial_rotation	L1_L2_Flex_Ext	L1_L2_Lat_Bending	L1_L2_axial_rotation	L1_T12_Flex_Ext	L1_T12_Lat_Bending	L1_T12_axial_rotation	Abs_r3	Abs_r2	Abs_r1	Abs_t1	Abs_t2	neck_flexion	neck_bending	neck_rotation	arm_flex_r	arm_add_r	arm_rot_r	elbow_flex_r	pro_sup_r	wrist_flex_r	wrist_dev_r	arm_flex_l	arm_add_l	arm_rot_l	elbow_flex_l	pro_sup_l	wrist_flex_l	wrist_dev_l
      3.51666667	      1.08197615	     -6.75294080	     91.74912169	      0.26682940	      0.98045242	      0.23143795	      2.77850596	     -0.50843566	    -17.60104731	     10.43424794	      0.18211198	     21.16721099	     16.81316750	      0.00000000	     -0.75916334	     -0.09741760	      2.92140375	      0.33215149	      0.00579714	     12.91953232	    -14.64977157	      0.00000000	      0.12895242	      0.16203534	      0.79071162	      0.23947754	      0.21550700	      0.84013110	      0.21185593	      0.39397273	      0.84013110	      0.14737972	      0.39397273	      0.69187267	      0.11974522	      0.33042247	      0.64245319	      0.07368341	      0.25099274	      0.59303372	      0.92109426	      1.83297617	      4.39770083	      0.00000000	      0.00000000	     15.86771617	     -0.31202659	      5.69677023	      7.78355698	     -9.35102342	     52.44204716	     36.59363857	     63.64932617	      2.03171370	      1.24513959	      4.32831352	     -8.09846414	     26.18905653	     47.85228547	     88.17826023	     -8.63122559	      6.13678958
      3.53333333	      0.98526530	     -6.61723973	     91.53579639	      0.26782270	      0.98048805	      0.23009802	      2.40324796	     -0.45284624	    -17.14083520	     10.05428993	      0.17548046	     21.32170430	     16.78025449	      0.00000000	     -1.06197215	     -0.06411524	      2.95872696	      0.33524592	      0.00585115	     12.89533308	    -14.80362750	      0.00000000	      0.12426788	      0.14497181	      0.84865614	      0.23077787	      0.19281250	      0.90169715	      0.20415969	      0.35248445	      0.90169715	      0.14202575	      0.35248445	      0.74257412	      0.11539515	      0.29562651	      0.68953311	      0.07100666	      0.22456133	      0.63649211	      0.88763301	      1.63995007	      4.71997086	      0.00000000	      0.00000000	     15.67604568	     -0.21266134	      5.85302796	      7.03278773	     -9.13732625	     46.61213496	     36.79808438	     71.63851061	      2.19208137	      2.29300119	      3.96957970	     -8.53478019	     26.41140255	     47.13274838	     88.04673962	     -8.74405081	      4.72115809
      3.55000000	      0.89294629	     -6.46809032	     91.30295655	      0.26877741	      0.98054203	      0.22872332	      1.99171212	     -0.39840935	    -16.69248340	      9.61930426	      0.16788853	     21.40268187	     16.80325097	      0.00000000	     -1.37489047	     -0.02310486	      3.01453199	      0.34092064	      0.00595019	     12.78440265	    -15.05095851	      0.00000000	      0.11945641	      0.12829194	      0.88391535	      0.22184249	      0.17062829	      0.93916005	      0.19625493	      0.31192903	      0.93916005	      0.13652673	      0.31192903	      0.77342593	      0.11092722	      0.26161293	      0.71818122	      0.06825739	      0.19872422	      0.66293651	      0.85326517	      1.45126413	      4.91607198	      0.00000000	      0.00000000	     15.47610669	     -0.00571727	      6.04621138	      6.63182022	     -9.08436482	     43.27417483	     37.12114182	     75.93859157	      0.75387432	      2.47418737	      3.68663483	     -9.05255444	     27.07207282	     46.30767915	     87.99941122	     -9.65193030	      1.95141675
      3.56666667	      0.80719616	     -6.25670935	     91.14394078	      0.26969579	      0.98053200	      0.22727517	      1.48726134	     -0.35544620	    -16.30481789	      9.17663849	      0.16016256	     21.60118068	     17.05160310	      0.00000000	     -1.74608857	      0.01104636	      2.99927627	      0.33635720	      0.00587054	     12.67902265	    -15.11167614	      0.00000000	      0.10806997	      0.11023978	      0.85850499	      0.20069674	      0.14661891	      0.91216155	      0.17754815	      0.26803701	      0.91216155	      0.12351317	      0.26803701	      0.75119186	      0.10035377	      0.22480096	      0.69753530	      0.06175118	      0.17076142	      0.64387874	      0.77193297	      1.24705446	      4.77474719	      0.00000000	      0.00000000	     15.20638644	      0.08925243	      6.11952713	      6.63414081	     -9.04897247	     42.15246628	     37.05607533	     76.20621591	     -0.67202784	      2.08881247	      3.18314369	     -9.58288480	     26.91098578	     46.15757649	     88.11059804	     -9.81696779	      0.93659271
      3.58333333	      0.71584888	     -6.12698607	     91.04810272	      0.27024410	      0.98053235	      0.22594589	      1.01276681	     -0.28537443	    -15.95297520	      8.57566677	      0.14967362	     21.42343357	     16.81936054	      0.00000000	     -2.00174865	      0.07306804	      3.25469675	      0.33994423	      0.00593315	     12.55808120	    -15.48344624	      0.00000000	      0.10546289	      0.09461819	      0.91613151	      0.19585512	      0.12584220	      0.97338973	      0.17326497	      0.23005467	      0.97338973	      0.12053353	      0.23005467	      0.80161507	      0.09793284	      0.19294542	      0.74435685	      0.06026149	      0.14656358	      0.68709863	      0.75331084	      1.07033991	      5.09524862	      0.00000000	      0.00000000	     15.13955432	      0.19563113	      5.91097246	      5.67116681	     -8.79194190	     38.67464253	     37.52119741	     81.20005209	     -3.30094468	      1.72630305	      3.46382884	     -9.86854079	     28.54714891	     44.39308002	     87.96321881	    -11.60689280	     -4.03722808
      3.60000000	      0.64983073	     -5.96877022	     91.09078968	      0.27072739	      0.98048022	      0.22476597	      0.46622628	     -0.19763003	    -15.54624782	      7.92306078	      0.13828350	     21.41148359	     16.79148668	      0.00000000	     -2.25271588	      0.09690246	      3.36992660	      0.33355284	      0.00582160	     12.58678414	    -15.43446664	      0.00000000	      0.09772439	      0.08042766	      0.90087150	      0.18148396	      0.10696878	      0.95717597	      0.16055139	      0.19555180	      0.95717597	      0.11168920	      0.19555180	      0.78826256	      0.09074686	      0.16400807	      0.73195809	      0.05583971	      0.12458244	      0.67565362	      0.69803552	      0.90981372	      5.01037702	      0.00000000	      0.00000000	     14.92058658	      0.41672316	      5.92802271	      5.25557470	     -8.53907950	     37.68885110	     37.28627828	     82.31956876	     -5.48048021	      0.97775819	      3.38371824	    -10.06427501	     28.66144991	     43.49682867	     87.94185898	    -11.79247109	     -5.82805367
